<mxfile host="app.diagrams.net" agent="Mozilla/5.0 (Windows NT 10.0; Win64; x64; rv:133.0) Gecko/20100101 Firefox/133.0" version="25.0.3">
  <diagram name="Seite-1" id="Q4Bf0ugEHYTw4wCcsTt3">
    <mxGraphModel dx="2551" dy="929" grid="1" gridSize="10" guides="1" tooltips="1" connect="1" arrows="1" fold="1" page="1" pageScale="1" pageWidth="827" pageHeight="1169" math="0" shadow="0">
      <root>
        <mxCell id="0" />
        <mxCell id="1" parent="0" />
        <object label="Advice" btelligentShapeType="MeasureGroup" btelligentLibrary="ADAPT" id="BBVSgjqUGbZZGQJtcsMZ-1">
          <mxCell style="group;fillColor=default;connectable=1;whiteSpace=wrap;align=left;spacingTop=5;spacingLeft=31;fontStyle=1;textShadow=0;labelBorderColor=none;labelBackgroundColor=none;" vertex="1" connectable="0" parent="1">
            <mxGeometry x="-360" y="240.25" width="160" height="119.5" as="geometry" />
          </mxCell>
        </object>
        <object label="" ADAPT="Measuregroup (Cube)" id="BBVSgjqUGbZZGQJtcsMZ-2">
          <mxCell style="rounded=1;whiteSpace=wrap;html=1;arcSize=12;align=left;spacingLeft=-16;verticalAlign=top;spacingTop=30;fontSize=12;container=0;fillColor=none;noLabel=1;connectable=0;editable=0;movable=1;resizable=1;rotatable=1;deletable=1;locked=0;" vertex="1" parent="BBVSgjqUGbZZGQJtcsMZ-1">
            <mxGeometry width="160" height="119.5" as="geometry" />
          </mxCell>
        </object>
        <mxCell id="BBVSgjqUGbZZGQJtcsMZ-3" value="" style="endArrow=none;html=1;rounded=0;editable=0;" edge="1" parent="BBVSgjqUGbZZGQJtcsMZ-1">
          <mxGeometry width="50" height="50" relative="1" as="geometry">
            <mxPoint x="3" y="39.5" as="sourcePoint" />
            <mxPoint x="158" y="39.5" as="targetPoint" />
            <Array as="points">
              <mxPoint x="73" y="39.5" />
            </Array>
          </mxGeometry>
        </mxCell>
        <mxCell id="BBVSgjqUGbZZGQJtcsMZ-4" style="vsdxID=9;fillColor=#FFFFFF;gradientColor=none;shape=stencil(jZBNDoQgDIVP063BdsEBHOceJqI0w4BB5u/2A+lCZWHcvbZfm9cH1K12WAygWlMMD/PhMVmgGyCytyZyygqoB+qmEM0cw8uPUi9DIYt6hne58JW9Vqmyg+p3rO8CO/Y7+IhqbDRdhU+u1hZQN6iv45XjLLZfJ3ZOotrP62xyS3Kl/g8=);strokeColor=#000000;spacingTop=-3;spacingBottom=-3;spacingLeft=-3;spacingRight=-3;points=[];labelBackgroundColor=none;rounded=0;html=1;whiteSpace=wrap;container=0;editable=0;" vertex="1" parent="BBVSgjqUGbZZGQJtcsMZ-1">
          <mxGeometry x="6.775000000000091" y="13.850000000000023" width="10.725000000000001" height="18.999999999999986" as="geometry" />
        </mxCell>
        <mxCell id="BBVSgjqUGbZZGQJtcsMZ-5" style="vsdxID=10;fillColor=#FFFFFF;gradientColor=none;shape=stencil(jZBNDoQgDIVP063BdsEBHOceJqI0w4BB5u/2A+lCZWHcvbZfm9cH1K12WAygWlMMD/PhMVmgGyCytyZyygqoB+qmEM0cw8uPUi9DIYt6hne58JW9Vqmyg+p3rO8CO/Y7+IhqbDRdhU+u1hZQN6iv45XjLLZfJ3ZOotrP62xyS3Kl/g8=);strokeColor=#000000;spacingTop=-3;spacingBottom=-3;spacingLeft=-3;spacingRight=-3;flipH=1;points=[];labelBackgroundColor=none;rounded=0;html=1;whiteSpace=wrap;container=0;editable=0;" vertex="1" parent="BBVSgjqUGbZZGQJtcsMZ-1">
          <mxGeometry x="17.500000000000092" y="13.850000000000023" width="10.725000000000001" height="18.999999999999986" as="geometry" />
        </mxCell>
        <mxCell id="BBVSgjqUGbZZGQJtcsMZ-6" value="&lt;div style=&quot;font-size: 1px&quot;&gt;&lt;/div&gt;" style="verticalAlign=middle;align=center;overflow=width;vsdxID=11;fillColor=#C0C0C0;gradientColor=none;shape=stencil(nZBNCoQwDIVPk31t8ASO3kOw2mBtpVaduf20BPEHceHuveRLSB5gMel6VCDFFLzr1UpN0IAfkJKsVp5CVIAlYNE6rzrvZtuwH+tEJjW4JW348lwmRJqR4sc+Z1sxa8ge2PyMPpCvd27n3LLPt0axP9mSMZzRsX8NJZY4UCz/);strokeColor=#000000;spacingTop=-3;spacingBottom=-3;spacingLeft=-3;spacingRight=-3;points=[];labelBackgroundColor=none;rounded=0;html=1;whiteSpace=wrap;container=0;editable=0;" vertex="1" parent="BBVSgjqUGbZZGQJtcsMZ-1">
          <mxGeometry x="6.775000000000091" y="8.149999999999977" width="21.450000000000003" height="11.399999999999995" as="geometry" />
        </mxCell>
        <mxCell id="BBVSgjqUGbZZGQJtcsMZ-7" value="&lt;ul&gt;&lt;li&gt;&amp;lt;connected to&amp;gt;&lt;br&gt;&lt;/li&gt;&lt;/ul&gt;" style="text;html=1;align=left;verticalAlign=top;whiteSpace=wrap;rounded=0;spacingLeft=-31;fontSize=10;spacingTop=-14;connectable=0;" vertex="1" parent="BBVSgjqUGbZZGQJtcsMZ-1">
          <mxGeometry x="7" y="42" width="150" height="73" as="geometry" />
        </mxCell>
        <object label="Client" btelligentShapeType="Dimension" btelligentLibrary="ADAPT" id="BBVSgjqUGbZZGQJtcsMZ-8">
          <mxCell style="group;fillColor=default;verticalAlign=middle;align=left;spacingLeft=31;fontStyle=1;connectable=1;whiteSpace=wrap;" vertex="1" connectable="0" parent="1">
            <mxGeometry x="-680" y="120" width="160" height="40" as="geometry" />
          </mxCell>
        </object>
        <object label="GGG" id="BBVSgjqUGbZZGQJtcsMZ-9">
          <mxCell style="rounded=0;whiteSpace=wrap;html=1;noLabel=1;container=0;editable=0;movable=1;resizable=1;rotatable=1;deletable=1;locked=0;connectable=0;fillColor=none;" vertex="1" parent="BBVSgjqUGbZZGQJtcsMZ-8">
            <mxGeometry width="160" height="40" as="geometry" />
          </mxCell>
        </object>
        <mxCell id="BBVSgjqUGbZZGQJtcsMZ-10" value="" style="rounded=0;whiteSpace=wrap;html=1;fillColor=#000000;fontColor=#ffffff;strokeColor=#000000;strokeWidth=1;deletable=1;cloneable=0;movable=1;editable=1;resizable=1;rotatable=1;locked=0;connectable=1;container=0;expand=0;recursiveResize=0;allowArrows=0;" vertex="1" parent="BBVSgjqUGbZZGQJtcsMZ-8">
          <mxGeometry x="6.000000000000028" y="14" width="10" height="10" as="geometry" />
        </mxCell>
        <mxCell id="BBVSgjqUGbZZGQJtcsMZ-11" value="" style="endArrow=block;html=1;rounded=0;endFill=1;startSize=2;endSize=3;strokeWidth=1;deletable=1;cloneable=0;movable=1;editable=1;resizable=1;rotatable=1;locked=0;connectable=1;" edge="1" parent="BBVSgjqUGbZZGQJtcsMZ-8">
          <mxGeometry width="50" height="50" relative="1" as="geometry">
            <mxPoint x="15.000000000000028" y="14" as="sourcePoint" />
            <mxPoint x="28.00000000000003" y="14" as="targetPoint" />
          </mxGeometry>
        </mxCell>
        <mxCell id="BBVSgjqUGbZZGQJtcsMZ-12" value="" style="endArrow=block;html=1;rounded=0;endFill=1;startSize=2;endSize=3;strokeWidth=1;deletable=1;cloneable=0;movable=1;editable=1;resizable=1;rotatable=1;locked=0;connectable=1;" edge="1" parent="BBVSgjqUGbZZGQJtcsMZ-8">
          <mxGeometry width="50" height="50" relative="1" as="geometry">
            <mxPoint x="6.000000000000028" y="22" as="sourcePoint" />
            <mxPoint x="6.000000000000028" y="36" as="targetPoint" />
          </mxGeometry>
        </mxCell>
        <mxCell id="BBVSgjqUGbZZGQJtcsMZ-13" value="" style="endArrow=block;html=1;rounded=0;endFill=1;startSize=2;endSize=3;strokeWidth=1;deletable=1;cloneable=0;movable=1;editable=1;resizable=1;rotatable=1;locked=0;connectable=1;" edge="1" parent="BBVSgjqUGbZZGQJtcsMZ-8">
          <mxGeometry width="50" height="50" relative="1" as="geometry">
            <mxPoint x="6.000000000000028" y="14" as="sourcePoint" />
            <mxPoint x="17.00000000000003" y="4" as="targetPoint" />
          </mxGeometry>
        </mxCell>
        <object label="Timestamp" btelligentShapeType="Dimension" btelligentLibrary="ADAPT" id="BBVSgjqUGbZZGQJtcsMZ-14">
          <mxCell style="group;fillColor=default;verticalAlign=middle;align=left;spacingLeft=31;fontStyle=1;connectable=1;whiteSpace=wrap;" vertex="1" connectable="0" parent="1">
            <mxGeometry y="360.25" width="160" height="40" as="geometry" />
          </mxCell>
        </object>
        <object label="GGG" id="BBVSgjqUGbZZGQJtcsMZ-15">
          <mxCell style="rounded=0;whiteSpace=wrap;html=1;noLabel=1;container=0;editable=0;movable=1;resizable=1;rotatable=1;deletable=1;locked=0;connectable=0;fillColor=none;" vertex="1" parent="BBVSgjqUGbZZGQJtcsMZ-14">
            <mxGeometry width="160" height="40" as="geometry" />
          </mxCell>
        </object>
        <mxCell id="BBVSgjqUGbZZGQJtcsMZ-16" value="" style="rounded=0;whiteSpace=wrap;html=1;fillColor=#000000;fontColor=#ffffff;strokeColor=#000000;strokeWidth=1;deletable=1;cloneable=0;movable=1;editable=1;resizable=1;rotatable=1;locked=0;connectable=1;container=0;expand=0;recursiveResize=0;allowArrows=0;" vertex="1" parent="BBVSgjqUGbZZGQJtcsMZ-14">
          <mxGeometry x="6.000000000000028" y="14" width="10" height="10" as="geometry" />
        </mxCell>
        <mxCell id="BBVSgjqUGbZZGQJtcsMZ-17" value="" style="endArrow=block;html=1;rounded=0;endFill=1;startSize=2;endSize=3;strokeWidth=1;deletable=1;cloneable=0;movable=1;editable=1;resizable=1;rotatable=1;locked=0;connectable=1;" edge="1" parent="BBVSgjqUGbZZGQJtcsMZ-14">
          <mxGeometry width="50" height="50" relative="1" as="geometry">
            <mxPoint x="15.000000000000028" y="14" as="sourcePoint" />
            <mxPoint x="28.00000000000003" y="14" as="targetPoint" />
          </mxGeometry>
        </mxCell>
        <mxCell id="BBVSgjqUGbZZGQJtcsMZ-18" value="" style="endArrow=block;html=1;rounded=0;endFill=1;startSize=2;endSize=3;strokeWidth=1;deletable=1;cloneable=0;movable=1;editable=1;resizable=1;rotatable=1;locked=0;connectable=1;" edge="1" parent="BBVSgjqUGbZZGQJtcsMZ-14">
          <mxGeometry width="50" height="50" relative="1" as="geometry">
            <mxPoint x="6.000000000000028" y="22" as="sourcePoint" />
            <mxPoint x="6.000000000000028" y="36" as="targetPoint" />
          </mxGeometry>
        </mxCell>
        <mxCell id="BBVSgjqUGbZZGQJtcsMZ-19" value="" style="endArrow=block;html=1;rounded=0;endFill=1;startSize=2;endSize=3;strokeWidth=1;deletable=1;cloneable=0;movable=1;editable=1;resizable=1;rotatable=1;locked=0;connectable=1;" edge="1" parent="BBVSgjqUGbZZGQJtcsMZ-14">
          <mxGeometry width="50" height="50" relative="1" as="geometry">
            <mxPoint x="6.000000000000028" y="14" as="sourcePoint" />
            <mxPoint x="17.00000000000003" y="4" as="targetPoint" />
          </mxGeometry>
        </mxCell>
        <object label="Calendar" btelligentShapeType="Dimension" btelligentLibrary="ADAPT" id="BBVSgjqUGbZZGQJtcsMZ-20">
          <mxCell style="group;fillColor=default;verticalAlign=middle;align=left;spacingLeft=31;fontStyle=1;connectable=1;whiteSpace=wrap;" vertex="1" connectable="0" parent="1">
            <mxGeometry y="200" width="160" height="40" as="geometry" />
          </mxCell>
        </object>
        <object label="GGG" id="BBVSgjqUGbZZGQJtcsMZ-21">
          <mxCell style="rounded=0;whiteSpace=wrap;html=1;noLabel=1;container=0;editable=0;movable=1;resizable=1;rotatable=1;deletable=1;locked=0;connectable=0;fillColor=none;" vertex="1" parent="BBVSgjqUGbZZGQJtcsMZ-20">
            <mxGeometry width="160" height="40" as="geometry" />
          </mxCell>
        </object>
        <mxCell id="BBVSgjqUGbZZGQJtcsMZ-22" value="" style="rounded=0;whiteSpace=wrap;html=1;fillColor=#000000;fontColor=#ffffff;strokeColor=#000000;strokeWidth=1;deletable=1;cloneable=0;movable=1;editable=1;resizable=1;rotatable=1;locked=0;connectable=1;container=0;expand=0;recursiveResize=0;allowArrows=0;" vertex="1" parent="BBVSgjqUGbZZGQJtcsMZ-20">
          <mxGeometry x="6.000000000000028" y="14" width="10" height="10" as="geometry" />
        </mxCell>
        <mxCell id="BBVSgjqUGbZZGQJtcsMZ-23" value="" style="endArrow=block;html=1;rounded=0;endFill=1;startSize=2;endSize=3;strokeWidth=1;deletable=1;cloneable=0;movable=1;editable=1;resizable=1;rotatable=1;locked=0;connectable=1;" edge="1" parent="BBVSgjqUGbZZGQJtcsMZ-20">
          <mxGeometry width="50" height="50" relative="1" as="geometry">
            <mxPoint x="15.000000000000028" y="14" as="sourcePoint" />
            <mxPoint x="28.00000000000003" y="14" as="targetPoint" />
          </mxGeometry>
        </mxCell>
        <mxCell id="BBVSgjqUGbZZGQJtcsMZ-24" value="" style="endArrow=block;html=1;rounded=0;endFill=1;startSize=2;endSize=3;strokeWidth=1;deletable=1;cloneable=0;movable=1;editable=1;resizable=1;rotatable=1;locked=0;connectable=1;" edge="1" parent="BBVSgjqUGbZZGQJtcsMZ-20">
          <mxGeometry width="50" height="50" relative="1" as="geometry">
            <mxPoint x="6.000000000000028" y="22" as="sourcePoint" />
            <mxPoint x="6.000000000000028" y="36" as="targetPoint" />
          </mxGeometry>
        </mxCell>
        <mxCell id="BBVSgjqUGbZZGQJtcsMZ-25" value="" style="endArrow=block;html=1;rounded=0;endFill=1;startSize=2;endSize=3;strokeWidth=1;deletable=1;cloneable=0;movable=1;editable=1;resizable=1;rotatable=1;locked=0;connectable=1;" edge="1" parent="BBVSgjqUGbZZGQJtcsMZ-20">
          <mxGeometry width="50" height="50" relative="1" as="geometry">
            <mxPoint x="6.000000000000028" y="14" as="sourcePoint" />
            <mxPoint x="17.00000000000003" y="4" as="targetPoint" />
          </mxGeometry>
        </mxCell>
        <object label="Calendar" btelligentShapeType="Dimension" btelligentLibrary="ADAPT" id="BBVSgjqUGbZZGQJtcsMZ-26">
          <mxCell style="group;fillColor=default;verticalAlign=middle;align=left;spacingLeft=31;fontStyle=1;connectable=1;whiteSpace=wrap;" vertex="1" connectable="0" parent="1">
            <mxGeometry y="280" width="160" height="40" as="geometry" />
          </mxCell>
        </object>
        <object label="GGG" id="BBVSgjqUGbZZGQJtcsMZ-27">
          <mxCell style="rounded=0;whiteSpace=wrap;html=1;noLabel=1;container=0;editable=0;movable=1;resizable=1;rotatable=1;deletable=1;locked=0;connectable=0;fillColor=none;" vertex="1" parent="BBVSgjqUGbZZGQJtcsMZ-26">
            <mxGeometry width="160" height="40" as="geometry" />
          </mxCell>
        </object>
        <mxCell id="BBVSgjqUGbZZGQJtcsMZ-28" value="" style="rounded=0;whiteSpace=wrap;html=1;fillColor=#000000;fontColor=#ffffff;strokeColor=#000000;strokeWidth=1;deletable=1;cloneable=0;movable=1;editable=1;resizable=1;rotatable=1;locked=0;connectable=1;container=0;expand=0;recursiveResize=0;allowArrows=0;" vertex="1" parent="BBVSgjqUGbZZGQJtcsMZ-26">
          <mxGeometry x="6.000000000000028" y="14" width="10" height="10" as="geometry" />
        </mxCell>
        <mxCell id="BBVSgjqUGbZZGQJtcsMZ-29" value="" style="endArrow=block;html=1;rounded=0;endFill=1;startSize=2;endSize=3;strokeWidth=1;deletable=1;cloneable=0;movable=1;editable=1;resizable=1;rotatable=1;locked=0;connectable=1;" edge="1" parent="BBVSgjqUGbZZGQJtcsMZ-26">
          <mxGeometry width="50" height="50" relative="1" as="geometry">
            <mxPoint x="15.000000000000028" y="14" as="sourcePoint" />
            <mxPoint x="28.00000000000003" y="14" as="targetPoint" />
          </mxGeometry>
        </mxCell>
        <mxCell id="BBVSgjqUGbZZGQJtcsMZ-30" value="" style="endArrow=block;html=1;rounded=0;endFill=1;startSize=2;endSize=3;strokeWidth=1;deletable=1;cloneable=0;movable=1;editable=1;resizable=1;rotatable=1;locked=0;connectable=1;" edge="1" parent="BBVSgjqUGbZZGQJtcsMZ-26">
          <mxGeometry width="50" height="50" relative="1" as="geometry">
            <mxPoint x="6.000000000000028" y="22" as="sourcePoint" />
            <mxPoint x="6.000000000000028" y="36" as="targetPoint" />
          </mxGeometry>
        </mxCell>
        <mxCell id="BBVSgjqUGbZZGQJtcsMZ-31" value="" style="endArrow=block;html=1;rounded=0;endFill=1;startSize=2;endSize=3;strokeWidth=1;deletable=1;cloneable=0;movable=1;editable=1;resizable=1;rotatable=1;locked=0;connectable=1;" edge="1" parent="BBVSgjqUGbZZGQJtcsMZ-26">
          <mxGeometry width="50" height="50" relative="1" as="geometry">
            <mxPoint x="6.000000000000028" y="14" as="sourcePoint" />
            <mxPoint x="17.00000000000003" y="4" as="targetPoint" />
          </mxGeometry>
        </mxCell>
        <object label="Advice" btelligentShapeType="Dimension" btelligentLibrary="ADAPT" id="BBVSgjqUGbZZGQJtcsMZ-32">
          <mxCell style="group;fillColor=default;verticalAlign=middle;align=left;spacingLeft=31;fontStyle=1;connectable=1;whiteSpace=wrap;" vertex="1" connectable="0" parent="1">
            <mxGeometry x="-680" y="359.5" width="160" height="40" as="geometry" />
          </mxCell>
        </object>
        <object label="GGG" id="BBVSgjqUGbZZGQJtcsMZ-33">
          <mxCell style="rounded=0;whiteSpace=wrap;html=1;noLabel=1;container=0;editable=0;movable=1;resizable=1;rotatable=1;deletable=1;locked=0;connectable=0;fillColor=none;" vertex="1" parent="BBVSgjqUGbZZGQJtcsMZ-32">
            <mxGeometry width="160" height="40" as="geometry" />
          </mxCell>
        </object>
        <mxCell id="BBVSgjqUGbZZGQJtcsMZ-34" value="" style="rounded=0;whiteSpace=wrap;html=1;fillColor=#000000;fontColor=#ffffff;strokeColor=#000000;strokeWidth=1;deletable=1;cloneable=0;movable=1;editable=1;resizable=1;rotatable=1;locked=0;connectable=1;container=0;expand=0;recursiveResize=0;allowArrows=0;" vertex="1" parent="BBVSgjqUGbZZGQJtcsMZ-32">
          <mxGeometry x="6.000000000000028" y="14" width="10" height="10" as="geometry" />
        </mxCell>
        <mxCell id="BBVSgjqUGbZZGQJtcsMZ-35" value="" style="endArrow=block;html=1;rounded=0;endFill=1;startSize=2;endSize=3;strokeWidth=1;deletable=1;cloneable=0;movable=1;editable=1;resizable=1;rotatable=1;locked=0;connectable=1;" edge="1" parent="BBVSgjqUGbZZGQJtcsMZ-32">
          <mxGeometry width="50" height="50" relative="1" as="geometry">
            <mxPoint x="15.000000000000028" y="14" as="sourcePoint" />
            <mxPoint x="28.00000000000003" y="14" as="targetPoint" />
          </mxGeometry>
        </mxCell>
        <mxCell id="BBVSgjqUGbZZGQJtcsMZ-36" value="" style="endArrow=block;html=1;rounded=0;endFill=1;startSize=2;endSize=3;strokeWidth=1;deletable=1;cloneable=0;movable=1;editable=1;resizable=1;rotatable=1;locked=0;connectable=1;" edge="1" parent="BBVSgjqUGbZZGQJtcsMZ-32">
          <mxGeometry width="50" height="50" relative="1" as="geometry">
            <mxPoint x="6.000000000000028" y="22" as="sourcePoint" />
            <mxPoint x="6.000000000000028" y="36" as="targetPoint" />
          </mxGeometry>
        </mxCell>
        <mxCell id="BBVSgjqUGbZZGQJtcsMZ-37" value="" style="endArrow=block;html=1;rounded=0;endFill=1;startSize=2;endSize=3;strokeWidth=1;deletable=1;cloneable=0;movable=1;editable=1;resizable=1;rotatable=1;locked=0;connectable=1;" edge="1" parent="BBVSgjqUGbZZGQJtcsMZ-32">
          <mxGeometry width="50" height="50" relative="1" as="geometry">
            <mxPoint x="6.000000000000028" y="14" as="sourcePoint" />
            <mxPoint x="17.00000000000003" y="4" as="targetPoint" />
          </mxGeometry>
        </mxCell>
        <object label="Location" btelligentShapeType="Dimension" btelligentLibrary="ADAPT" id="BBVSgjqUGbZZGQJtcsMZ-38">
          <mxCell style="group;fillColor=default;verticalAlign=middle;align=left;spacingLeft=31;fontStyle=1;connectable=1;whiteSpace=wrap;" vertex="1" connectable="0" parent="1">
            <mxGeometry x="-680" y="200" width="160" height="40" as="geometry" />
          </mxCell>
        </object>
        <object label="GGG" id="BBVSgjqUGbZZGQJtcsMZ-39">
          <mxCell style="rounded=0;whiteSpace=wrap;html=1;noLabel=1;container=0;editable=0;movable=1;resizable=1;rotatable=1;deletable=1;locked=0;connectable=0;fillColor=none;" vertex="1" parent="BBVSgjqUGbZZGQJtcsMZ-38">
            <mxGeometry width="160" height="40" as="geometry" />
          </mxCell>
        </object>
        <mxCell id="BBVSgjqUGbZZGQJtcsMZ-40" value="" style="rounded=0;whiteSpace=wrap;html=1;fillColor=#000000;fontColor=#ffffff;strokeColor=#000000;strokeWidth=1;deletable=1;cloneable=0;movable=1;editable=1;resizable=1;rotatable=1;locked=0;connectable=1;container=0;expand=0;recursiveResize=0;allowArrows=0;" vertex="1" parent="BBVSgjqUGbZZGQJtcsMZ-38">
          <mxGeometry x="6.000000000000028" y="14" width="10" height="10" as="geometry" />
        </mxCell>
        <mxCell id="BBVSgjqUGbZZGQJtcsMZ-41" value="" style="endArrow=block;html=1;rounded=0;endFill=1;startSize=2;endSize=3;strokeWidth=1;deletable=1;cloneable=0;movable=1;editable=1;resizable=1;rotatable=1;locked=0;connectable=1;" edge="1" parent="BBVSgjqUGbZZGQJtcsMZ-38">
          <mxGeometry width="50" height="50" relative="1" as="geometry">
            <mxPoint x="15.000000000000028" y="14" as="sourcePoint" />
            <mxPoint x="28.00000000000003" y="14" as="targetPoint" />
          </mxGeometry>
        </mxCell>
        <mxCell id="BBVSgjqUGbZZGQJtcsMZ-42" value="" style="endArrow=block;html=1;rounded=0;endFill=1;startSize=2;endSize=3;strokeWidth=1;deletable=1;cloneable=0;movable=1;editable=1;resizable=1;rotatable=1;locked=0;connectable=1;" edge="1" parent="BBVSgjqUGbZZGQJtcsMZ-38">
          <mxGeometry width="50" height="50" relative="1" as="geometry">
            <mxPoint x="6.000000000000028" y="22" as="sourcePoint" />
            <mxPoint x="6.000000000000028" y="36" as="targetPoint" />
          </mxGeometry>
        </mxCell>
        <mxCell id="BBVSgjqUGbZZGQJtcsMZ-43" value="" style="endArrow=block;html=1;rounded=0;endFill=1;startSize=2;endSize=3;strokeWidth=1;deletable=1;cloneable=0;movable=1;editable=1;resizable=1;rotatable=1;locked=0;connectable=1;" edge="1" parent="BBVSgjqUGbZZGQJtcsMZ-38">
          <mxGeometry width="50" height="50" relative="1" as="geometry">
            <mxPoint x="6.000000000000028" y="14" as="sourcePoint" />
            <mxPoint x="17.00000000000003" y="4" as="targetPoint" />
          </mxGeometry>
        </mxCell>
        <object label="Process Status" btelligentShapeType="Dimension" btelligentLibrary="ADAPT" id="BBVSgjqUGbZZGQJtcsMZ-44">
          <mxCell style="group;fillColor=default;verticalAlign=middle;align=left;spacingLeft=31;fontStyle=1;connectable=1;whiteSpace=wrap;" vertex="1" connectable="0" parent="1">
            <mxGeometry x="-680" y="440" width="160" height="40" as="geometry" />
          </mxCell>
        </object>
        <object label="GGG" id="BBVSgjqUGbZZGQJtcsMZ-45">
          <mxCell style="rounded=0;whiteSpace=wrap;html=1;noLabel=1;container=0;editable=0;movable=1;resizable=1;rotatable=1;deletable=1;locked=0;connectable=0;fillColor=none;" vertex="1" parent="BBVSgjqUGbZZGQJtcsMZ-44">
            <mxGeometry width="160" height="40" as="geometry" />
          </mxCell>
        </object>
        <mxCell id="BBVSgjqUGbZZGQJtcsMZ-46" value="" style="rounded=0;whiteSpace=wrap;html=1;fillColor=#000000;fontColor=#ffffff;strokeColor=#000000;strokeWidth=1;deletable=1;cloneable=0;movable=1;editable=1;resizable=1;rotatable=1;locked=0;connectable=1;container=0;expand=0;recursiveResize=0;allowArrows=0;" vertex="1" parent="BBVSgjqUGbZZGQJtcsMZ-44">
          <mxGeometry x="6.000000000000028" y="14" width="10" height="10" as="geometry" />
        </mxCell>
        <mxCell id="BBVSgjqUGbZZGQJtcsMZ-47" value="" style="endArrow=block;html=1;rounded=0;endFill=1;startSize=2;endSize=3;strokeWidth=1;deletable=1;cloneable=0;movable=1;editable=1;resizable=1;rotatable=1;locked=0;connectable=1;" edge="1" parent="BBVSgjqUGbZZGQJtcsMZ-44">
          <mxGeometry width="50" height="50" relative="1" as="geometry">
            <mxPoint x="15.000000000000028" y="14" as="sourcePoint" />
            <mxPoint x="28.00000000000003" y="14" as="targetPoint" />
          </mxGeometry>
        </mxCell>
        <mxCell id="BBVSgjqUGbZZGQJtcsMZ-48" value="" style="endArrow=block;html=1;rounded=0;endFill=1;startSize=2;endSize=3;strokeWidth=1;deletable=1;cloneable=0;movable=1;editable=1;resizable=1;rotatable=1;locked=0;connectable=1;" edge="1" parent="BBVSgjqUGbZZGQJtcsMZ-44">
          <mxGeometry width="50" height="50" relative="1" as="geometry">
            <mxPoint x="6.000000000000028" y="22" as="sourcePoint" />
            <mxPoint x="6.000000000000028" y="36" as="targetPoint" />
          </mxGeometry>
        </mxCell>
        <mxCell id="BBVSgjqUGbZZGQJtcsMZ-49" value="" style="endArrow=block;html=1;rounded=0;endFill=1;startSize=2;endSize=3;strokeWidth=1;deletable=1;cloneable=0;movable=1;editable=1;resizable=1;rotatable=1;locked=0;connectable=1;" edge="1" parent="BBVSgjqUGbZZGQJtcsMZ-44">
          <mxGeometry width="50" height="50" relative="1" as="geometry">
            <mxPoint x="6.000000000000028" y="14" as="sourcePoint" />
            <mxPoint x="17.00000000000003" y="4" as="targetPoint" />
          </mxGeometry>
        </mxCell>
        <UserObject label="" btelligentShapeType="LoosePrecedence" btelligentLibrary="ADAPT" id="BBVSgjqUGbZZGQJtcsMZ-56">
          <mxCell style="vsdxID=5;startArrow=none;endArrow=block;startSize=10;endSize=10;strokeColor=#000000;spacingTop=2;spacingBottom=2;spacingLeft=2;spacingRight=2;verticalAlign=middle;html=1;labelBackgroundColor=#FFFFFF;rounded=1;jumpStyle=arc;startFill=0;endFill=1;fontStyle=2;labelBorderColor=none;edgeStyle=orthogonalEdgeStyle;" edge="1" parent="1" source="BBVSgjqUGbZZGQJtcsMZ-1" target="BBVSgjqUGbZZGQJtcsMZ-8">
            <mxGeometry relative="1" as="geometry">
              <mxPoint x="-190" y="360" as="sourcePoint" />
              <mxPoint x="-190" y="420" as="targetPoint" />
              <mxPoint as="offset" />
              <Array as="points">
                <mxPoint x="-440" y="300" />
                <mxPoint x="-440" y="140" />
              </Array>
            </mxGeometry>
          </mxCell>
        </UserObject>
        <UserObject label="" btelligentShapeType="LoosePrecedence" btelligentLibrary="ADAPT" id="BBVSgjqUGbZZGQJtcsMZ-57">
          <mxCell style="vsdxID=5;startArrow=none;endArrow=block;startSize=10;endSize=10;strokeColor=#000000;spacingTop=2;spacingBottom=2;spacingLeft=2;spacingRight=2;verticalAlign=middle;html=1;labelBackgroundColor=#FFFFFF;rounded=1;jumpStyle=arc;startFill=0;endFill=1;fontStyle=2;labelBorderColor=none;edgeStyle=orthogonalEdgeStyle;" edge="1" parent="1" source="BBVSgjqUGbZZGQJtcsMZ-1" target="BBVSgjqUGbZZGQJtcsMZ-38">
            <mxGeometry relative="1" as="geometry">
              <mxPoint x="-350" y="310" as="sourcePoint" />
              <mxPoint x="-550" y="170" as="targetPoint" />
              <mxPoint as="offset" />
              <Array as="points">
                <mxPoint x="-440" y="300" />
                <mxPoint x="-440" y="220" />
              </Array>
            </mxGeometry>
          </mxCell>
        </UserObject>
        <UserObject label="" btelligentShapeType="LoosePrecedence" btelligentLibrary="ADAPT" id="BBVSgjqUGbZZGQJtcsMZ-59">
          <mxCell style="vsdxID=5;startArrow=none;endArrow=block;startSize=10;endSize=10;strokeColor=#000000;spacingTop=2;spacingBottom=2;spacingLeft=2;spacingRight=2;verticalAlign=middle;html=1;labelBackgroundColor=#FFFFFF;rounded=1;jumpStyle=arc;startFill=0;endFill=1;fontStyle=2;labelBorderColor=none;edgeStyle=orthogonalEdgeStyle;" edge="1" parent="1" source="BBVSgjqUGbZZGQJtcsMZ-1" target="BBVSgjqUGbZZGQJtcsMZ-32">
            <mxGeometry relative="1" as="geometry">
              <mxPoint x="-330" y="330" as="sourcePoint" />
              <mxPoint x="-530" y="190" as="targetPoint" />
              <mxPoint as="offset" />
              <Array as="points">
                <mxPoint x="-440" y="300" />
                <mxPoint x="-440" y="380" />
              </Array>
            </mxGeometry>
          </mxCell>
        </UserObject>
        <UserObject label="" btelligentShapeType="LoosePrecedence" btelligentLibrary="ADAPT" id="BBVSgjqUGbZZGQJtcsMZ-60">
          <mxCell style="vsdxID=5;startArrow=none;endArrow=block;startSize=10;endSize=10;strokeColor=#000000;spacingTop=2;spacingBottom=2;spacingLeft=2;spacingRight=2;verticalAlign=middle;html=1;labelBackgroundColor=#FFFFFF;rounded=1;jumpStyle=arc;startFill=0;endFill=1;fontStyle=2;labelBorderColor=none;edgeStyle=orthogonalEdgeStyle;" edge="1" parent="1" source="BBVSgjqUGbZZGQJtcsMZ-1" target="BBVSgjqUGbZZGQJtcsMZ-44">
            <mxGeometry relative="1" as="geometry">
              <mxPoint x="-320" y="340" as="sourcePoint" />
              <mxPoint x="-520" y="200" as="targetPoint" />
              <mxPoint as="offset" />
              <Array as="points">
                <mxPoint x="-440" y="300" />
                <mxPoint x="-440" y="460" />
              </Array>
            </mxGeometry>
          </mxCell>
        </UserObject>
        <UserObject label="transaction" btelligentShapeType="LoosePrecedence" btelligentLibrary="ADAPT" id="BBVSgjqUGbZZGQJtcsMZ-61">
          <mxCell style="vsdxID=5;startArrow=none;endArrow=block;startSize=10;endSize=10;strokeColor=#000000;spacingTop=2;spacingBottom=2;spacingLeft=2;spacingRight=2;verticalAlign=middle;html=1;labelBackgroundColor=#FFFFFF;rounded=1;jumpStyle=arc;startFill=0;endFill=1;fontStyle=2;labelBorderColor=none;edgeStyle=orthogonalEdgeStyle;" edge="1" parent="1" source="BBVSgjqUGbZZGQJtcsMZ-1" target="BBVSgjqUGbZZGQJtcsMZ-26">
            <mxGeometry x="0.2" relative="1" as="geometry">
              <mxPoint x="-350" y="310" as="sourcePoint" />
              <mxPoint x="-470" y="150" as="targetPoint" />
              <mxPoint as="offset" />
              <Array as="points">
                <mxPoint x="-180" y="300" />
                <mxPoint x="-180" y="300" />
              </Array>
            </mxGeometry>
          </mxCell>
        </UserObject>
        <UserObject label="transaction" btelligentShapeType="LoosePrecedence" btelligentLibrary="ADAPT" id="BBVSgjqUGbZZGQJtcsMZ-62">
          <mxCell style="vsdxID=5;startArrow=none;endArrow=block;startSize=10;endSize=10;strokeColor=#000000;spacingTop=2;spacingBottom=2;spacingLeft=2;spacingRight=2;verticalAlign=middle;html=1;labelBackgroundColor=#FFFFFF;rounded=1;jumpStyle=arc;startFill=0;endFill=1;fontStyle=2;labelBorderColor=none;edgeStyle=orthogonalEdgeStyle;" edge="1" parent="1" source="BBVSgjqUGbZZGQJtcsMZ-1" target="BBVSgjqUGbZZGQJtcsMZ-14">
            <mxGeometry x="0.4285" relative="1" as="geometry">
              <mxPoint x="-190" y="310" as="sourcePoint" />
              <mxPoint x="-70" y="310" as="targetPoint" />
              <mxPoint as="offset" />
              <Array as="points">
                <mxPoint x="-160" y="300" />
                <mxPoint x="-160" y="380" />
              </Array>
            </mxGeometry>
          </mxCell>
        </UserObject>
        <UserObject label="finished" btelligentShapeType="LoosePrecedence" btelligentLibrary="ADAPT" id="BBVSgjqUGbZZGQJtcsMZ-63">
          <mxCell style="vsdxID=5;startArrow=none;endArrow=block;startSize=10;endSize=10;strokeColor=#000000;spacingTop=2;spacingBottom=2;spacingLeft=2;spacingRight=2;verticalAlign=middle;html=1;labelBackgroundColor=#FFFFFF;rounded=1;jumpStyle=arc;startFill=0;endFill=1;fontStyle=2;labelBorderColor=none;edgeStyle=orthogonalEdgeStyle;" edge="1" parent="1" source="BBVSgjqUGbZZGQJtcsMZ-1" target="BBVSgjqUGbZZGQJtcsMZ-20">
            <mxGeometry x="0.4287" relative="1" as="geometry">
              <mxPoint x="-180" y="320" as="sourcePoint" />
              <mxPoint x="-60" y="320" as="targetPoint" />
              <mxPoint as="offset" />
              <Array as="points">
                <mxPoint x="-160" y="300" />
                <mxPoint x="-160" y="220" />
              </Array>
            </mxGeometry>
          </mxCell>
        </UserObject>
        <object label="Advice Measures" btelligentShapeType="MeasureDimension" btelligentLibrary="ADAPT" id="BBVSgjqUGbZZGQJtcsMZ-64">
          <mxCell style="group;fillColor=default;verticalAlign=middle;align=left;spacingLeft=36;whiteSpace=wrap;fontStyle=1;connectable=1;" vertex="1" connectable="0" parent="1">
            <mxGeometry x="-360" y="440" width="160" height="40" as="geometry" />
          </mxCell>
        </object>
        <object label="" ADAPT="Measure Dimension" id="BBVSgjqUGbZZGQJtcsMZ-65">
          <mxCell style="rounded=0;whiteSpace=wrap;html=1;align=left;spacingLeft=37;fontStyle=0;fontFamily=Helvetica;fontSize=13;noLabel=1;connectable=0;editable=0;movable=1;resizable=1;rotatable=1;deletable=1;locked=0;fillColor=none;" vertex="1" parent="BBVSgjqUGbZZGQJtcsMZ-64">
            <mxGeometry width="160" height="40" as="geometry" />
          </mxCell>
        </object>
        <mxCell id="BBVSgjqUGbZZGQJtcsMZ-66" value="" style="group" vertex="1" connectable="0" parent="BBVSgjqUGbZZGQJtcsMZ-64">
          <mxGeometry x="6" y="10" width="25" height="20" as="geometry" />
        </mxCell>
        <mxCell id="BBVSgjqUGbZZGQJtcsMZ-67" value="" style="rounded=0;whiteSpace=wrap;html=1;fillColor=#C0C0C0;fontColor=#333333;strokeColor=#000000;" vertex="1" parent="BBVSgjqUGbZZGQJtcsMZ-66">
          <mxGeometry width="25" height="20" as="geometry" />
        </mxCell>
        <mxCell id="BBVSgjqUGbZZGQJtcsMZ-68" value="" style="endArrow=none;html=1;rounded=0;entryX=0.25;entryY=0;entryDx=0;entryDy=0;" edge="1" parent="BBVSgjqUGbZZGQJtcsMZ-66" target="BBVSgjqUGbZZGQJtcsMZ-67">
          <mxGeometry width="50" height="50" relative="1" as="geometry">
            <mxPoint x="6.25" y="6.666666666666666" as="sourcePoint" />
            <mxPoint x="8.333333333333332" y="25" as="targetPoint" />
          </mxGeometry>
        </mxCell>
        <mxCell id="BBVSgjqUGbZZGQJtcsMZ-69" value="" style="endArrow=none;html=1;rounded=0;entryX=0.5;entryY=0;entryDx=0;entryDy=0;" edge="1" parent="BBVSgjqUGbZZGQJtcsMZ-66" target="BBVSgjqUGbZZGQJtcsMZ-67">
          <mxGeometry width="50" height="50" relative="1" as="geometry">
            <mxPoint x="12.5" y="13.333333333333332" as="sourcePoint" />
            <mxPoint x="12.464583333333342" y="3.333333333333333" as="targetPoint" />
          </mxGeometry>
        </mxCell>
        <mxCell id="BBVSgjqUGbZZGQJtcsMZ-70" value="" style="endArrow=none;html=1;rounded=0;entryX=0.75;entryY=0;entryDx=0;entryDy=0;" edge="1" parent="BBVSgjqUGbZZGQJtcsMZ-66" target="BBVSgjqUGbZZGQJtcsMZ-67">
          <mxGeometry width="50" height="50" relative="1" as="geometry">
            <mxPoint x="18.75" y="6.666666666666666" as="sourcePoint" />
            <mxPoint x="10.416666666666668" y="6.666666666666666" as="targetPoint" />
          </mxGeometry>
        </mxCell>
        <UserObject label="" btelligentShapeType="LoosePrecedence" btelligentLibrary="ADAPT" id="BBVSgjqUGbZZGQJtcsMZ-71">
          <mxCell style="vsdxID=5;startArrow=none;endArrow=block;startSize=10;endSize=10;strokeColor=#000000;spacingTop=2;spacingBottom=2;spacingLeft=2;spacingRight=2;verticalAlign=middle;html=1;labelBackgroundColor=#FFFFFF;rounded=1;jumpStyle=arc;startFill=0;endFill=1;fontStyle=2;labelBorderColor=none;edgeStyle=orthogonalEdgeStyle;" edge="1" parent="1" source="BBVSgjqUGbZZGQJtcsMZ-1" target="BBVSgjqUGbZZGQJtcsMZ-64">
            <mxGeometry relative="1" as="geometry">
              <mxPoint x="-260" y="350" as="sourcePoint" />
              <mxPoint x="-260" y="410" as="targetPoint" />
              <mxPoint as="offset" />
            </mxGeometry>
          </mxCell>
        </UserObject>
        <object label="avg lines per advice" btelligentShapeType="DimensionMember" btelligentLibrary="ADAPT" id="BBVSgjqUGbZZGQJtcsMZ-77">
          <mxCell style="group;fillColor=default;verticalAlign=middle;align=left;spacingLeft=34;whiteSpace=wrap;connectable=1;" vertex="1" connectable="0" parent="1">
            <mxGeometry x="-200" y="580" width="160" height="40" as="geometry" />
          </mxCell>
        </object>
        <object label="" ADAPT="DimensionMember" id="BBVSgjqUGbZZGQJtcsMZ-78">
          <mxCell style="rounded=1;whiteSpace=wrap;html=1;arcSize=50;align=left;spacingLeft=38;fillColor=none;noLabel=1;connectable=0;editable=0;movable=1;resizable=1;rotatable=1;deletable=1;locked=0;" vertex="1" parent="BBVSgjqUGbZZGQJtcsMZ-77">
            <mxGeometry width="160" height="40" as="geometry" />
          </mxCell>
        </object>
        <mxCell id="BBVSgjqUGbZZGQJtcsMZ-79" value="" style="group;movable=0;resizable=0;rotatable=0;deletable=0;editable=0;locked=1;connectable=0;" vertex="1" connectable="0" parent="BBVSgjqUGbZZGQJtcsMZ-77">
          <mxGeometry x="3" y="3" width="30" height="30" as="geometry" />
        </mxCell>
        <mxCell id="BBVSgjqUGbZZGQJtcsMZ-80" value="&lt;div style=&quot;font-size: 24px;&quot;&gt;&lt;font style=&quot;font-size: 24px; font-family: Calibri; color: rgb(0, 0, 0); direction: ltr; letter-spacing: 0px; line-height: 120%; opacity: 1;&quot;&gt;{&amp;nbsp;  }&lt;br style=&quot;font-size: 24px;&quot;&gt;&lt;/font&gt;&lt;/div&gt;" style="verticalAlign=middle;align=center;overflow=width;vsdxID=10;fillColor=none;gradientColor=none;shape=stencil(nZBLDoAgDERP0z3SIyjew0SURgSD+Lu9kMZoXLhwN9O+tukAlrNpJg1SzDH4QW/URgNYgZTkjA4UkwJUgGXng+6DX1zLfmoymdXo17xh5zmRJ6Q42BWCfc2oJfdAr+Yv+AP9Cb7OJ3H/2JG1HNGz/84klThPVCc=);strokeColor=none;spacingTop=0;spacingBottom=0;spacingLeft=0;spacingRight=0;points=[];labelBackgroundColor=none;rounded=0;html=1;whiteSpace=wrap;container=0;fontSize=24;fontStyle=0;horizontal=1;" vertex="1" parent="BBVSgjqUGbZZGQJtcsMZ-79">
          <mxGeometry width="30" height="30" as="geometry" />
        </mxCell>
        <mxCell id="BBVSgjqUGbZZGQJtcsMZ-81" value="" style="ellipse;whiteSpace=wrap;html=1;aspect=fixed;fillColor=#c0c0c0;strokeColor=#330000;" vertex="1" parent="BBVSgjqUGbZZGQJtcsMZ-79">
          <mxGeometry x="10" y="12" width="11" height="11" as="geometry" />
        </mxCell>
        <UserObject label="" btelligentShapeType="LoosePrecedence" btelligentLibrary="ADAPT" id="BBVSgjqUGbZZGQJtcsMZ-83">
          <mxCell style="vsdxID=5;startArrow=none;endArrow=block;startSize=10;endSize=10;strokeColor=#000000;spacingTop=2;spacingBottom=2;spacingLeft=2;spacingRight=2;verticalAlign=middle;html=1;labelBackgroundColor=#FFFFFF;rounded=1;jumpStyle=arc;startFill=0;endFill=1;fontStyle=2;labelBorderColor=none;edgeStyle=orthogonalEdgeStyle;" edge="1" parent="1" source="BBVSgjqUGbZZGQJtcsMZ-64" target="BBVSgjqUGbZZGQJtcsMZ-77">
            <mxGeometry relative="1" as="geometry">
              <mxPoint x="-270" y="490" as="sourcePoint" />
              <mxPoint x="-190" y="550" as="targetPoint" />
              <mxPoint as="offset" />
              <Array as="points">
                <mxPoint x="-280" y="600" />
              </Array>
            </mxGeometry>
          </mxCell>
        </UserObject>
        <object label="&lt;div&gt;sum(Advice Line)&amp;nbsp;&lt;/div&gt;&lt;div&gt;/ count()&lt;/div&gt;" btelligentShapeType="Function" btelligentLibrary="ADAPT" id="BBVSgjqUGbZZGQJtcsMZ-84">
          <mxCell style="group;fillColor=default;verticalAlign=middle;align=left;spacingLeft=32;fontStyle=2;html=1;connectable=1;" vertex="1" connectable="0" parent="1">
            <mxGeometry y="580" width="160" height="60" as="geometry" />
          </mxCell>
        </object>
        <object label="" ADAPT="Function" id="BBVSgjqUGbZZGQJtcsMZ-85">
          <mxCell style="shape=parallelogram;perimeter=parallelogramPerimeter;whiteSpace=wrap;html=1;fixedSize=1;size=10;align=left;spacingLeft=37;fillColor=none;noLabel=1;connectable=0;editable=0;" vertex="1" parent="BBVSgjqUGbZZGQJtcsMZ-84">
            <mxGeometry width="160" height="60" as="geometry" />
          </mxCell>
        </object>
        <mxCell id="BBVSgjqUGbZZGQJtcsMZ-86" value="" style="group;movable=0;resizable=0;rotatable=0;deletable=0;editable=0;locked=1;connectable=0;" vertex="1" connectable="0" parent="BBVSgjqUGbZZGQJtcsMZ-84">
          <mxGeometry x="12" y="10" width="18.000000000000014" height="19.19999999999999" as="geometry" />
        </mxCell>
        <mxCell id="BBVSgjqUGbZZGQJtcsMZ-87" style="vsdxID=9;fillColor=#FFFFFF;gradientColor=none;shape=stencil(tVHREoIgEPwaHnEQssln0/9gEpXJxDko6e+DOSqzx6a329u9vYMlorKDnBXhzDowZ7Xo1g1EHAnnehoUaBcqImoiqs6A6sFcpxbxLKMyVhdziw4e53LG4gxnd8SIGpRKOAUGkpQXh6zYoxqSPC8zscOWXxs87YoEPZVeWwrGSafNhGSZyFFCr2hYRrtR9h82dlFq/mr/cN72vS/8lwtD8f54zGzNbUMKLQxY1A8=);strokeColor=#000000;spacingTop=-3;spacingBottom=-3;spacingLeft=-3;spacingRight=-3;points=[];labelBackgroundColor=none;rounded=0;html=1;whiteSpace=wrap;container=0;" vertex="1" parent="BBVSgjqUGbZZGQJtcsMZ-86">
          <mxGeometry x="9.360000000000014" y="5.600000000000023" width="2.16" height="12" as="geometry" />
        </mxCell>
        <mxCell id="BBVSgjqUGbZZGQJtcsMZ-88" style="vsdxID=10;fillColor=#FFFFFF;gradientColor=none;shape=stencil(tVHREoIgEPwaHnEQssln0/9gEpXJxDko6e+DOSqzx6a329u9vYMlorKDnBXhzDowZ7Xo1g1EHAnnehoUaBcqImoiqs6A6sFcpxbxLKMyVhdziw4e53LG4gxnd8SIGpRKOAUGkpQXh6zYoxqSPC8zscOWXxs87YoEPZVeWwrGSafNhGSZyFFCr2hYRrtR9h82dlFq/mr/cN72vS/8lwtD8f54zGzNbUMKLQxY1A8=);strokeColor=#000000;spacingTop=-3;spacingBottom=-3;spacingLeft=-3;spacingRight=-3;flipH=1;points=[];labelBackgroundColor=none;rounded=0;html=1;whiteSpace=wrap;container=0;" vertex="1" parent="BBVSgjqUGbZZGQJtcsMZ-86">
          <mxGeometry x="15.840000000000018" y="5.600000000000023" width="2.16" height="12" as="geometry" />
        </mxCell>
        <mxCell id="BBVSgjqUGbZZGQJtcsMZ-89" style="vsdxID=12;fillColor=#FFFFFF;gradientColor=none;shape=stencil(rVHREoIgEPwaHnEQbNJns/9gEoXJxDko7e+DOSqtt6a329u9u4UlonZaTopw5jzYs5pN6zURB8K5GbUC40NFRENE3VlQPdjr2CKeZFTG6mJvccOCczljcYazO2JER5RKOAUGkrSssqJEMSQ132dVga0k2m3XPeFC5WIcBeulN3ZEskrkIKFXNByj3SD7tQ/mZqWmr/bv9rbuXo//l718bS8U71/HwNbcZ0KhhemK5gE=);strokeColor=#000000;spacingTop=-3;spacingBottom=-3;spacingLeft=-3;spacingRight=-3;points=[];labelBackgroundColor=none;rounded=0;html=1;whiteSpace=wrap;container=0;" vertex="1" parent="BBVSgjqUGbZZGQJtcsMZ-86">
          <mxGeometry width="9.36" height="19.200000000000003" as="geometry" />
        </mxCell>
        <mxCell id="BBVSgjqUGbZZGQJtcsMZ-90" style="vsdxID=13;edgeStyle=none;startArrow=none;endArrow=none;startSize=5;endSize=5;strokeColor=#000000;spacingTop=-3;spacingBottom=-3;spacingLeft=-3;spacingRight=-3;verticalAlign=middle;html=1;labelBackgroundColor=none;rounded=0;" edge="1" parent="BBVSgjqUGbZZGQJtcsMZ-86">
          <mxGeometry relative="1" as="geometry">
            <mxPoint as="offset" />
            <Array as="points" />
            <mxPoint x="2.1599999999999966" y="8.800000000000011" as="sourcePoint" />
            <mxPoint x="7.200000000000003" y="8.800000000000011" as="targetPoint" />
          </mxGeometry>
        </mxCell>
        <UserObject label="" btelligentShapeType="LoosePrecedence" btelligentLibrary="ADAPT" id="BBVSgjqUGbZZGQJtcsMZ-91">
          <mxCell style="vsdxID=5;startArrow=none;endArrow=block;startSize=10;endSize=10;strokeColor=#000000;spacingTop=2;spacingBottom=2;spacingLeft=2;spacingRight=2;verticalAlign=middle;html=1;labelBackgroundColor=#FFFFFF;rounded=1;jumpStyle=arc;startFill=0;endFill=1;fontStyle=2;labelBorderColor=none;edgeStyle=orthogonalEdgeStyle;" edge="1" parent="1" source="BBVSgjqUGbZZGQJtcsMZ-77" target="BBVSgjqUGbZZGQJtcsMZ-84">
            <mxGeometry relative="1" as="geometry">
              <mxPoint x="-270" y="490" as="sourcePoint" />
              <mxPoint x="-190" y="610" as="targetPoint" />
              <mxPoint as="offset" />
              <Array as="points">
                <mxPoint x="-30" y="600" />
                <mxPoint x="-30" y="600" />
              </Array>
            </mxGeometry>
          </mxCell>
        </UserObject>
      </root>
    </mxGraphModel>
  </diagram>
</mxfile>
